<svg id="Capa_1" enable-background="new 0 0 512 512" height="512" viewBox="0 0 512 512" width="512" xmlns="http://www.w3.org/2000/svg"><g><g><path d="m313.562 120.375h-115.124c-33.188 0-60.188-27-60.188-60.188s27-60.187 60.188-60.187h115.124c33.188 0 60.188 27 60.188 60.188s-27.001 60.187-60.188 60.187zm-115.124-90.375c-16.646 0-30.188 13.542-30.188 30.188s13.542 30.188 30.188 30.188h115.124c16.646 0 30.188-13.542 30.188-30.188s-13.543-30.188-30.188-30.188z" fill="#404a4a"/></g><path d="m313.562 0h-57.562v30h57.562c16.646 0 30.188 13.542 30.188 30.188s-13.542 30.188-30.188 30.188h-57.562v30h57.562c33.188 0 60.188-27 60.188-60.188s-27.001-60.188-60.188-60.188z" fill="#323c3c"/><path d="m286.125 60.25h-60.25c-8.284 0-15 6.716-15 15v60.25c0 8.284 6.716 15 15 15h60.25c8.284 0 15-6.716 15-15v-60.25c0-8.284-6.716-15-15-15z" fill="#f5dd90"/><path d="m286.125 60.25h-30.125v90.25h30.125c8.284 0 15-6.716 15-15v-60.25c0-8.284-6.716-15-15-15z" fill="#efc277"/><g><path d="m256 497c-99.666 0-180.75-81.084-180.75-180.75s81.084-180.75 180.75-180.75 180.75 81.084 180.75 180.75-81.084 180.75-180.75 180.75z" fill="#f8e8e8"/></g><path d="m436.75 316.25c0-99.666-81.084-180.75-180.75-180.75v361.5c99.666 0 180.75-81.084 180.75-180.75z" fill="#eae0db"/><g><path d="m256 512c-107.937 0-195.75-87.813-195.75-195.75s87.813-195.75 195.75-195.75 195.75 87.813 195.75 195.75-87.813 195.75-195.75 195.75zm0-361.5c-91.395 0-165.75 74.355-165.75 165.75s74.355 165.75 165.75 165.75 165.75-74.355 165.75-165.75-74.355-165.75-165.75-165.75z" fill="#efc277"/></g><path d="m421.75 316.25c0 91.395-74.355 165.75-165.75 165.75v30c107.937 0 195.75-87.813 195.75-195.75s-87.813-195.75-195.75-195.75v30c91.395 0 165.75 74.355 165.75 165.75z" fill="#e9a43a"/><path d="m208.248 268.498c-1.438 1.438-2.595 3.17-3.361 5.12l-48.02 122.32c-2.18 5.553-.862 11.87 3.356 16.088 2.867 2.867 6.703 4.394 10.609 4.394 1.842 0 3.699-.339 5.479-1.037l122.32-48.02c1.951-.766 3.682-1.922 5.121-3.361l-35.03-56.243z" fill="#9ce0f6"/><path d="m256 299.499v84.6l42.632-16.736c1.951-.766 3.682-1.922 5.121-3.361l-35.03-56.243z" fill="#77b7e9"/><path d="m335.688 217.117-122.32 48.02c-1.951.766-3.682 1.922-5.121 3.361l95.504 95.504c1.439-1.438 2.595-3.17 3.361-5.12l48.02-122.32c2.18-5.553.862-11.87-3.357-16.088-4.217-4.219-10.533-5.537-16.087-3.357z" fill="#dc455b"/><path d="m335.688 217.117-79.688 31.284v67.849l47.752 47.752c1.439-1.438 2.595-3.17 3.361-5.12l48.02-122.32c2.18-5.553.862-11.87-3.356-16.088-4.219-4.219-10.535-5.537-16.089-3.357z" fill="#b1004f"/></g></svg>